<svg xmlns="http://www.w3.org/2000/svg" viewBox="0 0 900 133.75"><defs><style>.cls-1{fill:#00b1bb;}.cls-2{fill:#1c5487;}.cls-3{fill:#156b94;}.cls-4{fill:#0e83a1;}.cls-5{fill:#079aae;}</style></defs><title>ModoAvion-horizontal</title><g id="Capa_2" data-name="Capa 2"><g id="Logos"><path class="cls-1" d="M217.75,31.51l.1-.21h-2.1a34,34,0,0,0-19.14,5.92A30.18,30.18,0,0,0,191.89,41a34.19,34.19,0,0,0-2.9,3.33,28.91,28.91,0,0,0-2.86-3.12,44.81,44.81,0,0,0-4.84-4,34,34,0,0,0-43,3.81,31.89,31.89,0,0,0-10.07,23.56v41.91a7.23,7.23,0,0,0,1.88,4.83,6.54,6.54,0,0,0,5.2,2.17,6.67,6.67,0,0,0,4.87-2,6.45,6.45,0,0,0,2.05-4.93V65.22a19.09,19.09,0,0,1,5.86-13.91,19.77,19.77,0,0,1,33.76,13.91v41.44a6.6,6.6,0,0,0,2.29,5.25,7.07,7.07,0,0,0,9.64-.3,7.05,7.05,0,0,0,2-4.95V65.22a18.84,18.84,0,0,1,5.86-13.91,19.06,19.06,0,0,1,14.07-5.94,19.88,19.88,0,0,1,19.77,19.85v41.44a6.44,6.44,0,0,0,2.16,5,7.06,7.06,0,0,0,4.84,2,6.82,6.82,0,0,0,4.74-1.86,6.19,6.19,0,0,0,2.34-5.13V65.22a33,33,0,0,0-10-23.85A31.94,31.94,0,0,0,217.75,31.51Z"/><path class="cls-1" d="M333,43.07a40.78,40.78,0,0,0-58,0,39.74,39.74,0,0,0-12.09,29,39.49,39.49,0,0,0,12.09,29,40.77,40.77,0,0,0,58,0,40.69,40.69,0,0,0,0-58Zm-2.06,29A26.68,26.68,0,0,1,304.1,99l-1,.06a25.57,25.57,0,0,1-18-7.79,27,27,0,0,1,0-38.13,27.15,27.15,0,0,1,38.11,0A26.2,26.2,0,0,1,331,72.09Z"/><path class="cls-1" d="M432.64,0a7.12,7.12,0,0,0-5,2.08,7.62,7.62,0,0,0-2.12,5.07V41.65c-.43-.37-.89-.76-1.39-1.16a32.19,32.19,0,0,0-4.21-2.91,41.12,41.12,0,0,0-21.59-6,40,40,0,0,0-29.17,12.24A40.09,40.09,0,0,0,356.89,73.1a40.09,40.09,0,0,0,12.24,29.25,41.34,41.34,0,0,0,58.42,0A40.09,40.09,0,0,0,439.8,73.1v-66A7,7,0,0,0,437.74,2,7.25,7.25,0,0,0,432.64,0Zm-7.23,72.95a25.93,25.93,0,0,1-7.89,19.22,26.23,26.23,0,0,1-17.92,7.94l-1.3-.05a27.21,27.21,0,0,1-27.19-27.19A27.21,27.21,0,0,1,398.3,45.68a25.72,25.72,0,0,1,19.2,8A26.53,26.53,0,0,1,425.41,72.95Z"/><path class="cls-1" d="M522.77,43.08h0a40.78,40.78,0,0,0-58,0,39.74,39.74,0,0,0-12.09,29,39.49,39.49,0,0,0,12.09,29,40.77,40.77,0,0,0,58,0,40.69,40.69,0,0,0,0-58Zm-2.07,29A26.68,26.68,0,0,1,493.83,99l-1,.06a25.57,25.57,0,0,1-18-7.79,27,27,0,0,1,0-38.13,27.15,27.15,0,0,1,38.11,0A26.2,26.2,0,0,1,520.7,72.09Z"/><path class="cls-2" d="M805.53,28.8l17.16-7.24a7,7,0,0,0-5.4-12.81L800.12,16a7,7,0,0,0,5.4,12.81Z"/><path class="cls-2" d="M590.34,31.37a39.58,39.58,0,0,0-29.1,12.09,40,40,0,0,0-12,29,40,40,0,0,0,12,29,39.83,39.83,0,0,0,29.09,12.09A39,39,0,0,0,601.56,112a41.27,41.27,0,0,0,10.17-4.6c1.33-.85,2.59-1.75,3.84-2.72.55-.43,1.1-.87,1.65-1.34v3.12a7.53,7.53,0,0,0,1.88,5.07l.13.13a7.63,7.63,0,0,0,5.14,1.88,7,7,0,0,0,7-7.07l.16-34a40,40,0,0,0-12-29A39.43,39.43,0,0,0,590.34,31.37Zm27,41.18a25.66,25.66,0,0,1-7.89,19h0a27,27,0,0,1-46.08-19.07,26.42,26.42,0,0,1,7.9-19.14,25.8,25.8,0,0,1,19.05-7.81,26.13,26.13,0,0,1,19.12,7.8A26.43,26.43,0,0,1,617.37,72.56Z"/><path class="cls-2" d="M729.6,32.39l-.15-.2a7.74,7.74,0,0,0-5.72-2.85h-.08a7.13,7.13,0,0,0-4.79,2.15,6.52,6.52,0,0,0-2.28,5v69.85a6.69,6.69,0,0,0,2.29,5.09,7.1,7.1,0,0,0,4.87,2.14,7.81,7.81,0,0,0,5.7-2.83,7.25,7.25,0,0,0,1-1.7,6.5,6.5,0,0,0,.42-2.62V36.58a6.51,6.51,0,0,0-.42-2.62A12.82,12.82,0,0,0,729.6,32.39Z"/><path class="cls-2" d="M781.32,31.53a39.75,39.75,0,0,0-29,12.09,40.78,40.78,0,0,0,0,57.95,41.06,41.06,0,0,0,58,0,39.7,39.7,0,0,0,12-29,39.61,39.61,0,0,0-12-28.94A39.49,39.49,0,0,0,781.32,31.53Zm26.87,40.95a25.75,25.75,0,0,1-7.89,19.06,26.78,26.78,0,0,1-38,0,26.5,26.5,0,0,1,0-37.89,25.7,25.7,0,0,1,19-8l1-.06a25.64,25.64,0,0,1,18,7.95A25.82,25.82,0,0,1,808.19,72.48Z"/><path class="cls-2" d="M890.1,41.43a32.7,32.7,0,0,0-23.71-10h-.16a32.34,32.34,0,0,0-23.47,9.82A32.05,32.05,0,0,0,832.7,64.75v41.83a6,6,0,0,0,2,4.9,5.45,5.45,0,0,0,2.27,1.7,7.17,7.17,0,0,0,2.56.4,6.78,6.78,0,0,0,5.12-2.08,6.23,6.23,0,0,0,2-4.92V65.22a19.56,19.56,0,0,1,33.38-14,18.89,18.89,0,0,1,5.78,14v41.36a7.23,7.23,0,0,0,1.88,4.75,6.64,6.64,0,0,0,5.2,2.24,6.56,6.56,0,0,0,5.14-2.1,5.49,5.49,0,0,0,1.54-2.18,7.7,7.7,0,0,0,.4-2.72V65.22A32.57,32.57,0,0,0,890.1,41.43Z"/><path class="cls-2" d="M673.88,113.25a7,7,0,0,0,3.48-1.11,8.72,8.72,0,0,0,3-4.51l10-26.22,5.72-15q1.55-4.09,3.09-8.18c2-5.43,4.09-10.86,6.19-16.26.11-.28.23-.56.34-.84a9.67,9.67,0,0,0,1-4.11,7.69,7.69,0,0,0-3.66-6.28,6.33,6.33,0,0,0-6.23-.5c-3,1.44-4,4.32-5,6.86l-.32.87c-1,2.68-2.1,5.54-3.24,8.33L672.14,85.71,654.19,44.93c-.82-1.85-1.58-3.73-2.35-5.6l-1-2.37a11,11,0,0,0-3.21-5,7.12,7.12,0,0,0-9.8,1.22,6.65,6.65,0,0,0-1,1.89c-1.11,3.12.11,5.89,1.19,8.34.19.43.38.87.56,1.3l7.63,18.67q2.53,6.2,5.07,12.39l10.46,25.51c.35.86.7,1.72,1,2.59.69,1.73,1.4,3.51,2.17,5.24a6.76,6.76,0,0,0,5.26,4.13A17.88,17.88,0,0,0,673.88,113.25Z"/><path class="cls-2" d="M82.93,29.11a7,7,0,0,0-3-2,8.72,8.72,0,0,0-5.41.42L47.72,35.87,32.37,40.69,24,43.32C18.51,45.08,13,46.83,7.44,48.53l-.87.25a9.67,9.67,0,0,0-3.86,1.75A7.69,7.69,0,0,0,0,57.29a6.33,6.33,0,0,0,3.46,5.2c3,1.45,5.89.49,8.46-.35l.89-.29c2.73-.87,5.65-1.78,8.55-2.61l41-11.71L41.47,86.87c-1,1.79-1.95,3.55-2.95,5.31l-1.26,2.23a11,11,0,0,0-2,5.64,7.12,7.12,0,0,0,7,6.94,6.65,6.65,0,0,0,2.12-.35c3.14-1.06,4.56-3.73,5.82-6.1.22-.42.45-.84.68-1.25l9.94-17.55L67.46,70.1,81,46.09c.46-.81.92-1.61,1.39-2.42.93-1.61,1.89-3.27,2.77-5a6.76,6.76,0,0,0,0-6.69A17.88,17.88,0,0,0,82.93,29.11Z"/><rect class="cls-2" x="8.68" y="75.88" width="18.21" height="11.71" rx="5.85" ry="5.85" transform="translate(-43.61 24.92) rotate(-34.95)"/><rect class="cls-3" x="6.17" y="104.2" width="9.93" height="15.44" rx="4.96" ry="4.96" transform="translate(-49.67 17.3) rotate(-27.04)"/><rect class="cls-4" x="32.27" y="122.76" width="8.15" height="12.67" rx="4.07" ry="4.07" transform="translate(-97.76 131.35) rotate(-75.24)"/><rect class="cls-5" x="59.55" y="121.27" width="9.9" height="6.37" rx="3.18" ry="3.18" transform="translate(-56.51 53.71) rotate(-32.29)"/><rect class="cls-1" x="73.92" y="99.17" width="4.58" height="7.13" rx="2.29" ry="2.29"/></g></g></svg>