<svg xmlns="http://www.w3.org/2000/svg" viewBox="0 0 668.58 716.25"><defs><style>.cls-1{fill:#00b1bb;}.cls-2{fill:#1c5487;}.cls-3{fill:#156b94;}.cls-4{fill:#0e83a1;}.cls-5{fill:#079aae;}</style></defs><title>ModoAvión-vertical</title><g id="Capa_2" data-name="Capa 2"><g id="Logos"><path class="cls-1" d="M147.19,367.95l.17-.35H143.9a55.9,55.9,0,0,0-31.46,9.72,49.61,49.61,0,0,0-7.77,6.3,56.2,56.2,0,0,0-4.77,5.48A47.53,47.53,0,0,0,95.21,384a73.66,73.66,0,0,0-8-6.5,54.64,54.64,0,0,0-31.62-9.74,54.26,54.26,0,0,0-39.08,16C5.57,394.45,0,407.48,0,422.47v68.89a11.88,11.88,0,0,0,3.09,7.94,10.75,10.75,0,0,0,8.54,3.56,11,11,0,0,0,8-3.27A10.61,10.61,0,0,0,23,491.49V423.37c0-8.78,3.16-16.26,9.64-22.86s14.09-9.77,23-9.77a31.2,31.2,0,0,1,23,9.77,30.91,30.91,0,0,1,9.51,22.86v68.13a10.84,10.84,0,0,0,3.76,8.62,11.62,11.62,0,0,0,15.85-.49,11.6,11.6,0,0,0,3.27-8.13V423.37a31,31,0,0,1,9.64-22.86,31.34,31.34,0,0,1,23.12-9.77,32.68,32.68,0,0,1,32.5,32.63v68.13a10.59,10.59,0,0,0,3.55,8.28,11.61,11.61,0,0,0,8,3.22,11.21,11.21,0,0,0,7.79-3.06,10.17,10.17,0,0,0,3.84-8.44V423.37c0-15-5.52-28.21-16.39-39.21A52.5,52.5,0,0,0,147.19,367.95Z"/><path class="cls-1" d="M336.7,387c-13.19-13.19-29.19-19.87-47.57-19.87s-34.51,6.69-47.7,19.87-19.87,29.23-19.87,47.7a64.91,64.91,0,0,0,19.87,47.7c13.18,13.19,29.23,19.87,47.7,19.87s34.39-6.69,47.57-19.87,20-29.32,20-47.7-6.73-34.29-20-47.69Zm-3.39,47.7c0,12.44-4.2,22.69-12.84,31.33s-18.89,12.84-31.33,12.84l-1.7.1a42,42,0,0,1-29.62-12.81c-8.74-8.86-13-19.11-13-31.34s4.25-22.36,13-31.33c8.64-8.64,18.89-12.84,31.33-12.84s22.69,4.2,31.32,12.83A43.07,43.07,0,0,1,333.31,434.66Z"/><path class="cls-1" d="M500.43,316.16a11.71,11.71,0,0,0-8.28,3.42,12.52,12.52,0,0,0-3.49,8.34v56.7c-.71-.61-1.47-1.24-2.29-1.91a52.91,52.91,0,0,0-6.91-4.79,67.59,67.59,0,0,0-35.49-9.8c-18.47,0-34.6,6.77-48,20.13s-20.13,29.53-20.13,48.08,6.77,34.73,20.13,48.08,29.06,19.87,48,19.87,35-6.69,48.08-19.87c13.36-13.35,20.13-29.53,20.13-48.08V327.79a11.51,11.51,0,0,0-3.37-8.36A11.92,11.92,0,0,0,500.43,316.16ZM488.54,436.07c0,12.53-4.24,22.86-13,31.59a43.11,43.11,0,0,1-29.45,13.06l-2.14-.08c-12.32,0-22.65-4.29-31.59-13.1A44.69,44.69,0,0,1,444,391.25c12.56,0,22.89,4.28,31.57,13.08C484.29,413.33,488.54,423.71,488.54,436.07Z"/><path class="cls-1" d="M648.59,387h0c-13.19-13.19-29.19-19.87-47.57-19.87s-34.51,6.69-47.7,19.87-19.87,29.23-19.87,47.7a64.91,64.91,0,0,0,19.87,47.7c13.18,13.19,29.23,19.87,47.7,19.87s34.39-6.69,47.57-19.87,20-29.32,20-47.7S661.86,400.36,648.59,387Zm-3.4,47.69c0,12.44-4.2,22.69-12.84,31.33S613.45,478.83,601,478.83l-1.7.1a42,42,0,0,1-29.62-12.81c-8.74-8.86-13-19.11-13-31.34s4.25-22.36,13-31.33c8.64-8.64,18.89-12.84,31.33-12.84s22.69,4.2,31.32,12.83A43.07,43.07,0,0,1,645.19,434.66Z"/><path class="cls-2" d="M488.51,554.65l32.71-13.8a13.25,13.25,0,1,0-10.3-24.42l-32.71,13.8a13.25,13.25,0,1,0,10.3,24.42Z"/><path class="cls-2" d="M78.35,559.55c-21.66,0-40.33,7.75-55.47,23S0,616.54,0,637.9s7.7,40,22.89,55.31,33.95,23,55.46,23a74.4,74.4,0,0,0,21.38-2.93,78.66,78.66,0,0,0,19.39-8.77c2.53-1.63,4.93-3.33,7.32-5.19,1-.81,2.09-1.66,3.14-2.54v5.94a14.35,14.35,0,0,0,3.58,9.66l.25.25a14.55,14.55,0,0,0,9.81,3.58,13.4,13.4,0,0,0,13.34-13.48l.3-64.87c0-21.36-7.7-40-22.87-55.29C119,567.31,100.26,559.55,78.35,559.55ZM129.87,638c0,14.22-4.92,26.06-15,36.18h0c-9.83,10-22.1,15-36.47,15a49.07,49.07,0,0,1-36.32-15C31.9,664,27,652.08,27,637.9A50.36,50.36,0,0,1,42,601.41c9.74-9.87,22-14.88,36.32-14.88s26.59,5,36.45,14.87C124.94,611.82,129.87,623.81,129.87,638Z"/><path class="cls-2" d="M343.78,561.5l-.28-.38c-3.22-3.56-6.89-5.38-10.91-5.43h-.15a13.59,13.59,0,0,0-9.13,4.09,12.43,12.43,0,0,0-4.35,9.54V702.46a12.75,12.75,0,0,0,4.36,9.7c2.91,2.71,6,4.09,9.28,4.09,3.82,0,7.42-1.76,10.86-5.39a13.81,13.81,0,0,0,1.83-3.25,12.4,12.4,0,0,0,.8-5V569.47a12.41,12.41,0,0,0-.8-5A24.43,24.43,0,0,0,343.78,561.5Z"/><path class="cls-2" d="M442.36,559.85c-21.41,0-40,7.75-55.32,23s-23,34-23,55.15,7.75,39.86,23,55.3c15,15.2,33.66,22.9,55.32,22.9,21.51,0,40.12-7.7,55.31-22.89s22.89-33.8,22.89-55.31-7.7-40-22.89-55.15S463.93,559.85,442.36,559.85Zm51.22,78.05a49.08,49.08,0,0,1-15,36.33c-10.12,10.12-22,15-36.18,15s-26.2-4.92-36.18-15S391,652,391,638s5-25.67,15.19-36,22.06-15.19,36.18-15.19l1.95-.12c13.27.44,24.49,5.41,34.22,15.15C488.67,612.13,493.59,623.92,493.59,637.9Z"/><path class="cls-2" d="M649.7,578.72c-12.55-12.55-27.75-19-45.19-19h-.3a61.64,61.64,0,0,0-44.74,18.71C546.75,591,540.3,606,540.3,623.17v79.74c0,4.08,1.29,7.22,3.83,9.34a10.38,10.38,0,0,0,4.32,3.24,13.67,13.67,0,0,0,4.89.75,12.92,12.92,0,0,0,9.75-4,11.88,11.88,0,0,0,3.88-9.38V624.06a37.28,37.28,0,0,1,63.62-26.64,36,36,0,0,1,11,26.64v78.84a13.78,13.78,0,0,0,3.58,9.06,12.66,12.66,0,0,0,9.91,4.28c4.13,0,7.43-1.35,9.79-4a10.47,10.47,0,0,0,2.94-4.16,14.68,14.68,0,0,0,.75-5.18V624.06C668.58,606.5,662.23,591.25,649.7,578.72Z"/><path class="cls-2" d="M237.58,715.61a13.32,13.32,0,0,0,6.63-2.11c3.36-2.28,4.69-5.78,5.76-8.59l19-50q5.46-14.33,10.9-28.66,3-7.79,5.89-15.58c3.9-10.35,7.8-20.69,11.8-31,.21-.54.43-1.07.66-1.6a18.43,18.43,0,0,0,1.94-7.84,14.66,14.66,0,0,0-7-12,12.06,12.06,0,0,0-11.87-1c-5.7,2.75-7.69,8.24-9.45,13.08l-.61,1.67c-1.92,5.1-4,10.56-6.18,15.87l-30.84,75.18-34.2-77.74c-1.55-3.53-3-7.11-4.47-10.68l-1.84-4.52c-1.36-3.41-2.76-6.93-6.12-9.6a13.58,13.58,0,0,0-18.68,2.32,12.67,12.67,0,0,0-2,3.59c-2.12,5.95.21,11.23,2.26,15.9.36.83.73,1.65,1.07,2.48l14.54,35.59q4.82,11.81,9.66,23.61l19.94,48.63c.67,1.64,1.33,3.29,2,4.94,1.31,3.29,2.66,6.7,4.14,10a12.89,12.89,0,0,0,10,7.88A34.08,34.08,0,0,0,237.58,715.61Z"/><path class="cls-2" d="M442.93,6.34A19,19,0,0,0,434.7.77C429.17-1,424.07.62,420,1.91L347.07,24.75,305.28,37.86Q293.93,41.43,282.59,45c-15.05,4.78-30.11,9.55-45.21,14.18-.79.24-1.59.46-2.38.68-3.39.94-7.23,2-10.51,4.76-5.15,4.06-8,11.27-7.25,18.42.67,6.41,4.11,11.57,9.43,14.16,8.13,4,16,1.34,23-1l2.41-.79c7.43-2.36,15.38-4.84,23.27-7.1L387,56.5,330,163.6c-2.59,4.87-5.31,9.66-8,14.46l-3.44,6.06c-2.63,4.53-5.34,9.22-5.36,15.35a19.39,19.39,0,0,0,19.12,18.91,18.1,18.1,0,0,0,5.78-1c8.54-2.88,12.42-10.17,15.84-16.6.61-1.14,1.21-2.28,1.84-3.39l27.06-47.78q9-15.85,17.95-31.71l36.91-65.37c1.24-2.2,2.51-4.39,3.78-6.59,2.54-4.38,5.16-8.9,7.55-13.48,3.2-6.14,3.2-12.6,0-18.21A48.68,48.68,0,0,0,442.93,6.34Z"/><rect class="cls-2" x="240.76" y="133.66" width="49.58" height="31.87" rx="15.94" ry="15.94" transform="translate(-37.81 179.09) rotate(-34.95)"/><rect class="cls-3" x="233.92" y="210.79" width="27.03" height="42.04" rx="13.51" ry="13.51" transform="translate(-78.34 137.84) rotate(-27.04)"/><rect class="cls-4" x="305" y="261.32" width="22.18" height="34.5" rx="11.09" ry="11.09" transform="translate(-33.82 513.25) rotate(-75.24)"/><rect class="cls-5" x="379.26" y="257.24" width="26.96" height="17.33" rx="8.67" ry="8.67" transform="translate(-81.32 250.96) rotate(-32.29)"/><rect class="cls-1" x="418.4" y="197.07" width="12.48" height="19.42" rx="6.24" ry="6.24"/></g></g></svg>